#!OML:ASF \\sashay\E\basketball\basketball\Project 1\Capture day 1\Session 1\Subject.ASF
:FULLY-SPECIFIED
:DEGREES
321
root 26.3699 12.2181 -8.39634 -189.311 -63.7258 191.396
lowerback 45.2319 -0.67712 7.50483
upperback 12.5705 -0.212451 2.39846
thorax -6.60813 -1.23505 -1.00824
lowerneck -11.3007 13.9712 -8.39334
upperneck -13.6823 18.7556 -4.71724
head -2.93997 9.60194 -0.100835
rclavicle -2.5842e-014 -4.41302e-014
rhumerus 13.8432 -11.8711 -79.2877
rradius 55.2526
rwrist -19.8087
rhand -38.217 49.3769
rfingers 7.12502
rthumb -11.2486 19.6985
lclavicle -2.5842e-014 -4.41302e-014
lhumerus -19.345 12.5301 82.0793
lradius 72.3993
lwrist 25.9148
lhand -36.6864 12.3006
lfingers 7.12502
lthumb -9.77206 42.0539
rfemur -55.0417 -25.2128 15.4198
rtibia 84.7623
rfoot -18.3113 -13.8174
rtoes -48.6612
lfemur -68.6061 19.6868 -8.50921
ltibia 71.2233
lfoot -6.54304 2.88193
ltoes 6.91491
322
root 26.4744 12.2416 -8.37965 -188.94 -64.4261 190.526
lowerback 45.2758 -0.586602 7.95874
upperback 12.5874 0.103216 2.19841
thorax -6.56333 -1.05725 -1.58081
lowerneck -11.4961 13.3709 -7.77889
upperneck -12.9623 17.9616 -4.54817
head -2.58907 9.16189 -0.0664527
rclavicle -4.85035e-014 -1.19271e-015
rhumerus 14.9735 -11.8158 -78.0269
rradius 56.9914
rwrist -20.5683
rhand -38.2646 49.6516
rfingers 7.12502
rthumb -11.2945 19.9757
lclavicle -4.85035e-014 -1.19271e-015
lhumerus -20.5849 10.9303 81.59
lradius 70.7417
lwrist 25.6284
lhand -36.899 12.1622
lfingers 7.12502
lthumb -9.97725 41.9057
rfemur -54.754 -25.3304 14.8567
rtibia 84.5107
rfoot -18.1372 -13.9045
rtoes -47.9825
lfemur -68.3667 20.2891 -9.96921
ltibia 70.385
lfoot -7.89281 4.20094
ltoes 7.74916
323
root 26.5788 12.275 -8.35613 -188.027 -65.2158 189.18
lowerback 45.3063 -0.445018 8.10915
upperback 12.47 0.407075 2.17976
thorax -6.67884 -0.894145 -1.80121
lowerneck -11.3659 13.0138 -8.04733
upperneck -12.8644 17.519 -4.28278
head -2.62046 8.95193 0.0448821
rclavicle 1.31198e-014 2.0276e-014
rhumerus 16.0866 -11.6939 -76.4275
rradius 58.5505
rwrist -21.2381
rhand -38.307 50.0632
rfingers 7.12502
rthumb -11.3353 20.3895
lclavicle 1.31198e-014 2.0276e-014
lhumerus -22.1059 9.63411 81.3786
lradius 69.2348
lwrist 24.8908
lhand -37.0786 11.7095
lfingers 7.12502
lthumb -10.1505 41.4446
rfemur -54.577 -25.5905 14.1197
rtibia 84.2084
rfoot -17.7217 -14.0086
rtoes -47.6301
lfemur -68.285 21.0236 -11.9908
ltibia 69.5486
lfoot -9.43508 6.04512
ltoes 8.30168
324
root 26.6895 12.3139 -8.32757 -187.409 -66.0374 188.244
lowerback 45.3174 -0.319194 8.24416
upperback 12.2672 0.726657 2.41157
thorax -6.88619 -0.737142 -1.75158
lowerneck -10.7959 12.2833 -8.65336
upperneck -12.7268 16.6008 -3.57959
head -2.7714 8.51982 0.311252
rclavicle 3.97569e-015 5.56597e-015
rhumerus 17.075 -11.2549 -74.3631
rradius 60.1637
rwrist -21.8973
rhand -38.482 50.4324
rfingers 7.12502
rthumb -11.5041 20.7681
lclavicle 3.97569e-015 5.56597e-015
lhumerus -23.8516 8.58989 81.4063
lradius 67.8589
lwrist 23.8019
lhand -37.5125 11.7999
lfingers 7.12502
lthumb -10.569 41.5142
rfemur -54.4295 -25.8114 13.628
rtibia 83.79
rfoot -17.0366 -14.4407
rtoes -47.7005
lfemur -68.326 21.8783 -14.0081
ltibia 68.6602
lfoot -10.9786 8.07613
ltoes 9.00432
325
root 26.7952 12.3459 -8.29551 -187.012 -66.8568 187.585
lowerback 45.1283 -0.286407 8.52678
upperback 12.1818 0.945772 2.53275
thorax -6.90598 -0.615875 -1.85786
lowerneck -10.3219 12.2221 -8.58512
upperneck -13.2223 16.3796 -4.44819
head -2.92344 8.4392 -0.0149164
rclavicle -2.62396e-014 -2.3059e-014
rhumerus 18.1932 -10.925 -72.6196
rradius 61.7918
rwrist -22.4344
rhand -38.8562 50.8863
rfingers 7.12502
rthumb -11.865 21.2425
lclavicle -2.62396e-014 -2.3059e-014
lhumerus -25.4074 7.53775 81.1748
lradius 66.556
lwrist 22.6716
lhand -37.7504 11.7659
lfingers 7.12502
lthumb -10.7985 41.4683
rfemur -54.2661 -26.0575 13.2154
rtibia 83.335
rfoot -16.5421 -14.7038
rtoes -47.3693
lfemur -68.6196 23.0902 -16.1721
ltibia 67.9153
lfoot -11.9429 9.91631
ltoes 7.67615
326
root 26.9028 12.4071 -8.25195 -186.336 -67.5925 186.607
lowerback 44.9462 -0.228153 8.82076
upperback 12.1228 1.17605 2.44426
thorax -6.89128 -0.478151 -2.19933
lowerneck -9.99965 11.805 -8.2155
upperneck -13.062 15.7758 -4.45405
head -2.86846 8.12612 -0.0736765
rclavicle -1.98785e-014 2.54444e-014
rhumerus 19.3619 -11.0661 -71.2848
rradius 63.2498
rwrist -22.7875
rhand -39.0369 51.2105
rfingers 7.12502
rthumb -12.0393 21.5768
lclavicle -1.98785e-014 2.54444e-014
lhumerus -26.7462 6.20005 80.6994
lradius 65.2865
lwrist 21.5885
lhand -37.8287 11.7716
lfingers 7.12502
lthumb -10.874 41.47
rfemur -53.8843 -26.1341 12.6485
rtibia 82.6214
rfoot -15.9948 -14.8625
rtoes -47.1351
lfemur -68.4908 23.8093 -18.0431
ltibia 67.1729
lfoot -12.3918 11.9808
ltoes 5.64717
327
root 27.0013 12.4488 -8.20383 -185.72 -68.2401 185.683
lowerback 44.8302 -0.15378 9.20787
upperback 12.0467 1.46444 2.27991
thorax -6.89759 -0.310685 -2.6907
lowerneck -9.91457 11.1804 -7.75326
upperneck -12.777 14.9433 -3.9679
head -2.76385 7.67743 0.026327
rclavicle 3.89618e-014 4.77083e-015
rhumerus 20.4885 -11.478 -69.9941
rradius 64.5709
rwrist -22.9086
rhand -39.1907 51.2737
rfingers 7.12502
rthumb -12.1875 21.6487
lclavicle 3.89618e-014 4.77083e-015
lhumerus -28.0267 4.69148 80.1671
lradius 64.0532
lwrist 20.7174
lhand -38.307 11.6341
lfingers 7.12502
lthumb -11.3354 41.3078
rfemur -53.5747 -26.1761 12.0833
rtibia 81.9467
rfoot -15.51 -14.8697
rtoes -46.4392
lfemur -68.5447 24.9964 -19.9442
ltibia 66.7205
lfoot -11.9316 12.8297
ltoes 4.22566
328
root 27.1019 12.4968 -8.14869 -185.17 -68.8027 184.863
lowerback 44.5564 -0.0867116 9.63736
upperback 12.0813 1.71544 2.07165
thorax -6.73112 -0.153123 -3.23606
lowerneck -10.3588 11.0288 -7.34055
upperneck -12.6631 14.7175 -4.2663
head -2.58224 7.54098 -0.087273
rclavicle -2.94201e-014 3.10104e-014
rhumerus 21.7784 -11.9234 -68.8084
rradius 65.8062
rwrist -23.0392
rhand -39.5505 51.5779
rfingers 7.12502
rthumb -12.5345 21.9739
lclavicle -2.94201e-014 3.10104e-014
lhumerus -29.1763 3.2532 79.5566
lradius 62.9769
lwrist 20.1771
lhand -38.6945 11.4111
lfingers 7.12502
lthumb -11.709 41.0638
rfemur -53.2788 -26.2806 11.6351
rtibia 81.1667
rfoot -14.849 -14.935
rtoes -45.7359
lfemur -68.4524 25.9917 -21.3552
ltibia 66.5344
lfoot -11.3628 12.8642
ltoes 3.80087
329
root 27.201 12.5511 -8.08617 -184.69 -69.2288 184.14
lowerback 44.3228 0.0629075 9.8534
upperback 12.0204 2.01137 2.01992
thorax -6.6941 0.010598 -3.52378
lowerneck -10.6078 10.2412 -7.36597
upperneck -11.5807 13.8129 -3.24743
head -2.23791 7.05729 0.288785
rclavicle 1.19271e-014 -3.89618e-014
rhumerus 23.0172 -12.0871 -67.4584
rradius 66.8877
rwrist -23.4571
rhand -40.0111 52.0464
rfingers 7.12502
rthumb -12.9785 22.47
lclavicle 1.19271e-014 -3.89618e-014
lhumerus -30.5205 2.04152 79.0883
lradius 62.0849
lwrist 19.9981
lhand -38.6837 11.3165
lfingers 7.12502
lthumb -11.6987 40.9699
rfemur -52.9447 -26.2308 11.217
rtibia 80.3079
rfoot -14.103 -15.0024
rtoes -45.3361
lfemur -68.232 26.9584 -22.333
ltibia 66.6627
lfoot -10.8837 12.0687
ltoes 4.309
330
root 27.2886 12.582 -8.01859 -184.221 -69.6688 183.465
lowerback 44.1201 0.238973 9.89549
upperback 11.7998 2.32489 2.14284
thorax -6.86077 0.167151 -3.54515
lowerneck -10.3927 10.1757 -7.34893
upperneck -11.5913 13.6841 -3.62893
head -2.24103 7.00146 0.157854
rclavicle -1.03368e-014 -2.62396e-014
rhumerus 24.1124 -12.0564 -65.9058
rradius 67.7582
rwrist -23.9129
rhand -40.3607 52.2575
rfingers 7.12502
rthumb -13.3155 22.7029
lclavicle -1.03368e-014 -2.62396e-014
lhumerus -32.2129 1.00037 78.8812
lradius 61.3105
lwrist 20.088
lhand -38.9034 10.9018
lfingers 7.12502
lthumb -11.9105 40.543
rfemur -52.6965 -26.2103 10.7262
rtibia 79.5509
rfoot -13.2638 -15.1414
rtoes -45.502
lfemur -67.7769 27.1735 -22.4748
ltibia 67.2568
lfoot -10.6252 11.2118
ltoes 6.21525
